<?xml version="1.0" encoding="utf-8"?>
<!-- Generator: Adobe Illustrator 19.2.1, SVG Export Plug-In . SVG Version: 6.00 Build 0)  -->
<svg version="1.1" id="layer" xmlns="http://www.w3.org/2000/svg" xmlns:xlink="http://www.w3.org/1999/xlink" x="0px" y="0px"
	 viewBox="0 0 652 652" style="enable-background:new 0 0 652 652;" xml:space="preserve">
<style type="text/css">
	.st0{fill:#DB3749;}
	.st1{fill:#FFFFFF;}
</style>
<g id="BLASON">
	<path id="FOND_ROUGE" class="st0" d="M249.4,313.4v-119c0-6.8-5.5-12.2-12.2-12.2H32.7c-6.7,0-12.2,5.5-12.2,12.2v119
		c-0.1,3.2,0,6.3,0.2,9.5c1.3,17.4,5.6,34.3,12.7,50.2c0.7,1.5,1.4,3,2.1,4.5c2.1,4.3,4.5,8.4,7,12.5c4.7,7.5,10.2,14.5,16.3,20.9
		l3.6,3.7c3.8,3.8,7.7,7.5,11.6,10.9c3.4,3,7,5.9,10.5,8.7c2.7,2,5.3,4,7.9,5.8c19.9,13.7,35,18.1,39.2,19.1l3.3,0.7l3.2-0.7
		c7.7-2.1,15.2-5.1,22.2-8.9c8.1-4.2,15.8-9.1,23.2-14.6c9.9-7.5,19.1-15.7,27.6-24.7c9.4-9.9,17.3-21.1,23.3-33.3
		c4.9-10,8.7-20.5,11.2-31.4c1.8-7.7,3-15.5,3.6-23.4C249.5,319.7,249.5,316.5,249.4,313.4z"/>
	<path id="blason_eau_melees" class="st1" d="M243.4,313.5V194.8c0-3.6-2.9-6.4-6.4-6.4H33c-3.5,0-6.4,2.9-6.4,6.4v118.7
		c-0.1,3,0,5.9,0.2,8.9c1.2,16.6,5.3,32.9,12.1,48.1c0.7,1.5,1.4,2.9,2,4.3c2,4.1,4.3,8.1,6.7,11.9c4.5,7.2,9.7,13.8,15.5,20
		c1.2,1.2,2.3,2.4,3.6,3.6c3.7,3.7,7.5,7.3,11.3,10.7c3.3,2.9,6.7,5.8,10.2,8.4c2.6,2,5.1,3.8,7.7,5.6c19,13.1,33.3,17.2,37.2,18.2
		l1.8,0.4l1.8-0.4c7.2-2,14.2-4.7,20.8-8.3c7.8-4.1,15.2-8.8,22.2-14.1c9.6-7.2,18.5-15.3,26.7-24c9-9.4,16.5-20.2,22.2-31.9
		c4.7-9.6,8.3-19.7,10.7-30.1c1.7-7.4,2.9-14.8,3.4-22.4C243.2,319.4,243.3,316.5,243.4,313.5z M68.4,264.2L68.4,264.2
		c0.7,6.9-1.4,14.6-3.6,22.7c-2.2,8.1-4.4,16-4,23.7c0.5,4.9,1.6,9.8,3.4,14.4c1.7,4.5,2.9,9.2,3.6,14c0.6,6.9-1.5,13.9-3.4,20.6
		c-1.8,5.9-3.6,12-3.6,18c0,6.4,1.9,13.3,3.9,20c-5.1-5.8-9.5-12.1-13.4-18.8c-0.3-0.5-0.6-1-0.9-1.5l-0.2-0.4
		c0.6-4.5,1.7-8.9,3.2-13.1c1.9-4.9,3-10.1,3.5-15.3c0.1-6.7-1.1-13.3-3.6-19.5c-1.8-4.8-2.9-9.9-3.4-15.1c-0.6-8.2,1.7-16,3.9-23.8
		c2-7.1,4-14,3.7-20.9c-0.5-5.2-1.7-10.2-3.8-15c-1.9-4.6-3.2-9.3-3.8-14.2c-0.7-9.4,1.7-16.9,4-24c2.2-6.7,4.3-13,3.8-20.5h11.2
		c0.2,6.6-1.8,12.1-3.9,18c-2.3,6.4-4.6,13-4.5,21.5c0.3,5,1.6,9.8,3.6,14.4C66.3,254.1,67.7,259.1,68.4,264.2z M38.9,241.8
		L38.9,241.8c0.7,4.8,2,9.5,3.9,14c1.9,4.3,3.1,8.9,3.7,13.6c0.4,6.8-1.6,13.5-3.7,20.6c-2.4,8.4-5,17-4,26.7
		c0.6,4.7,1.8,9.3,3.6,13.8c1.8,4.4,2.9,9,3.4,13.8c0,5.9-1,11.7-3,17.2c-2.3-5.9-4.2-12-5.6-18.1c-2.4-9.7-3.6-19.6-3.6-29.6V200.5
		c0-2.8,2.3-5.1,5.1-5.1h7.8c0.8,7.1-1.4,14.1-3.6,21.6C40.5,224.9,38,233.1,38.9,241.8z M75.2,362.2c1.8-4.4,3-9,3.6-13.8
		c0.7-10-1.4-16.6-3.6-23.2c-1.9-5-3.1-10.3-3.4-15.7c-0.3-7.9,1.9-15.6,4-23.2c2.3-8.1,4.4-15.7,3.7-23.3c-0.7-4.9-2-9.7-4-14.2
		c-2-4.5-3.2-9.2-3.7-14.1c-0.2-5.3,1.7-11.4,3.6-17.8c2.1-7,4.3-14.2,4.4-21.7h9.8c-0.5,5.9-1.8,11.7-3.7,17.3
		c-2.4,7.9-4.9,16-4,24.9c0.7,4.9,2,9.6,3.9,14.1c1.9,4.3,3.1,8.8,3.7,13.5c0.4,6.8-1.6,13.5-3.7,20.6c-2.4,8.4-5,17-4,26.7
		c0.6,4.7,1.8,9.3,3.6,13.8c1.8,4.4,2.9,9,3.3,13.7c0.3,6.8-1.6,12.7-3.4,18.4c-2.2,5.6-3.4,11.6-3.6,17.6c0,7.9,2.3,15.7,4.5,23.3
		c2.3,8.1,4.5,15.7,3.9,22.7c-3.2-2.6-6.4-5.3-9.5-8.1l-1.2-1.1c-1-5.2-2.2-10.3-3.8-15.3c-2.1-7.3-4.1-14.2-3.9-20.6
		C72.1,371.8,73.3,366.9,75.2,362.2z M97.2,398.7c-2.2-7.5-4.4-15.3-4.3-23.6c0.3-5.4,1.5-10.6,3.4-15.6c1.9-4.9,3.1-10.1,3.6-15.3
		c0.1-6.7-1.1-13.4-3.6-19.6c-1.8-4.8-2.9-9.8-3.4-14.9c-0.6-8.2,1.7-16,3.9-23.8c2.1-7.1,4-14,3.8-20.9c-0.5-5.2-1.8-10.2-3.8-15
		c-1.9-4.6-3.2-9.3-3.8-14.2c-0.8-9.4,1.7-16.8,4-24.1c1.9-5.2,3.2-10.7,3.8-16.2h130.4c2.8,0,5.1,2.3,5.1,5.1v113.2
		c0.1,9.9-1.1,19.8-3.6,29.4c-2.3,9.9-5.7,19.4-10.2,28.5c-5.4,11.1-12.5,21.2-21,30.2c-8,8.4-16.6,16.2-25.9,23.2
		c-6.7,5.1-13.7,9.7-21.1,13.6c-6.1,3.4-12.7,6-19.4,7.7c-6.8-1.8-13.4-4.4-19.6-7.8c-5.4-2.9-10.7-6.1-15.8-9.6
		c0.9-2.4,1.4-4.9,1.5-7.4C101.6,413.8,99.4,406.5,97.2,398.7z"/>
	<path class="st1" d="M205,332c-1.8,0.3-1.8,2.7-3,2.9c-0.9,0.2-2.3-1.6-2.9-2c-1.4-0.6-2.6-1.5-3.7-2.5c-1.8-2.2-4.3-5.5-4.6-8.4
		c-0.2-1.4-0.2-2.8-0.3-4.2c-0.1-1.4,3.7,0.2,4.2,0.3c3.4,0.9,7.1,0,9.8-2.2c3.8-2.9,3.4-6.1,2.6-10.3c-1.2-6.3-0.1-19.3,9.5-14.7
		c-0.2-2.3-2.1-4-4.4-4c-2.4-0.2-4.4,2.2-5.5,4c-0.4,0.6-0.4,4.6-1.9,4c-1.5-0.6-1.1-4.8-0.9-6.1c1-5,6.1-6.9,9.9-9.5
		c3.6-2.4,6.3-7.7,0.9-10c-0.3,3.1-0.3,4.5-2.8,6.6c-2.5,2.1-6.1,2-8.5,4.3c-1.4,1.1-2,2.9-1.6,4.6c0.2,0.6,1.4,2.2,1,2.9
		c-1.1,1.8-4.4-5.3-4.5-6.1c-1-8.1,9.6-10.7,14.5-14.2c2.8-2,5.2-3.8,5.5-7.5c0.2-2.5-1.5-6.4-4.3-6.7c0,0,0.5,3.8,0.6,4.2
		c0.2,1.6-0.2,3.2-1.2,4.5c-1.8,2.3-4.8,2.9-7.3,3.9c-2.8,1.1-5.9,1.5-8,3.8c-1.2,1.4-2,3.2-2.4,5c-0.2,0.9-0.4,7.8-2.2,3.6
		c-0.3-2.4,0-4.8,0.7-7.1c1.3-3.6,4.1-5.9,6.6-8.5c3.3-3,6.3-6.2,9-9.8c1.9-2.5,3-5.5,3.2-8.7c0-5.2-6.6-10.3-11.6-9.5
		c-4.1,0.6-7.1,1.8-9.7,5.1c-1.4,1.7-2.3,3.7-2.5,5.9c0.3,2,0.8,3.9,1.5,5.8c0.7,3,3.7,8.7-0.9,10.5c1.1,1.8,3.7,0.6,5-0.4
		c5-3.7,4-8.5,2.8-13.8c-0.8-3.4-1.2-6.7,2.4-8.5c3-1.6,6.7-0.5,8.3,2.5c0,0,0,0.1,0.1,0.1c3.6,6.4-2.9,13.4-7.1,17.5
		c-4.5,4.4-9.8,8.5-11.5,14.8c-1.8,6.9,2.3,13.6,6.3,18.8c0.9,1.1,4.2,5.1,5,6.3c2,3.2,4.5,7.3,3,11.2c-2.6,6.7-12,5.5-15.7,0.8
		c-0.2-0.3-0.4-0.6-0.6-0.9l0,0c0,0,0-0.1,0-0.1c-0.5-0.7-1-1.4-1.4-2.2c-0.2-0.4-0.5-0.7-0.7-1.1l-0.4-0.7c-1-1.8-1.8-3.4-2.7-5
		c-1.4-3.2-3-6.4-4.8-9.4c-0.8,2.1-2,4.1-3.6,5.7c-3.1,2.9,2.4,4.4,1,6.5s-6.1-1-6.9-2c-0.9-1-1.5-2.3-1.8-3.6
		c0-0.4,0.2-2.7-0.2-2.9c-1.6,1.5-3.1,3.1-4.4,4.8c-2.1,3,0.5,4.1,3,5.3c5.3,2.6,10.1,6,9.6,12.3c-0.2,2.4-1,6.1-0.3,8.4
		c0.4,1.4,1.1,1.7,1.8,2.8c1,1.4-1.6,0.5-1.8,0.5c-3-0.1-2.4,4.5-2.4,6.1c0,3.4-2,4.2-4.5,5.8c0,0,0.1,0.1,0.1,0.2
		c2,3.6,6.7-5.6,7.1-6.6c0.5-1.3,1.6-0.9,2.2,0.1c0.6,1-0.4,1,0.7,2.1c0.8,0.7,1.6,1.4,2.5,1.9c3.7,2.4,8.4,3.8,11.5,7.1
		c2.4,2.6,2,7.7-0.3,10.3c-3,3.3-6.6,1.1-10.2,1.8c-1.4,0.3-1.6,3.6-0.9,4.6c1.1,1.6,3,1.6,2.6,4.2c-0.9,5.5,3.4-1.6,4.9-2.7
		c1.1-0.8,2.8-1.9,4.2-1.1s-1.8,3.6-2.2,4.3c0.9,0.6,1.8,1.1,2.6,1.8c0.1-0.9,0.5-1.7,1.1-2.4l0,0c0.1-0.1,0.2-0.2,0.3-0.2
		c1.4-0.8,1.2,0.2,2,0.9c0.8,0.4,1.5,0.7,2.3,1c1.5,0.9,0-2.5,0-2.6c0.3-2.7,5.7-4,4.4-6.9c-0.6-1.4,0.7-2.1,1.1-0.7
		c0.3,1.2,2.1,1.2,2.9,1c-1-0.7-1.9-1.5-2.6-2.5c-0.7-1.1-0.5-1.8,0-2.2h0.1c0.5-0.4,1.1-0.8,1.4-1.5c-0.6-1-3.4-1.2-0.8-2.3
		c1.8-0.7,3.8,0,5.5-1.6c-1.6-0.4-3.8,1.6-5.1-0.7c-0.5-1.1-1.1-2.2-1.8-3.2c0,0-2.3-2-0.9-2c1.8,0.1,2.2,2.2,3.9,1.8
		c3.3-0.6,4.9-3.3,8.4-1.6c1.2-6.2-9.4,1-10.4-5.3c-0.3-1.9,1.6-2,3.2-2.2c2.8-0.4,2.6-3,3.1-5.1l0,0
		C208.4,331.4,206.7,331.7,205,332z"/>
	<path class="st1" d="M142.1,363.3c1.9-1.8,0.8-1.8-0.9-3.3c-1.2-1-1.5-2.1-0.2-3.1c1.3-1,3.6,1.3,5.1,1.2s3.2-0.6,3.6-2
		c0.1-0.5,0.9-5.2,2.1-3.3c0.9,1.5,0,2.9,2.1,4.1c1.6,1,3.5,1.4,5.3,1c-1.8-1.2-4.4-2.6-2.2-4.8c0.7-0.7,0-2.4,0.5-3.4
		c0.7-1.3,2.2-1.5,1.3-2.7c-0.9-1.2,0.5-2,1.1-2.6c-0.3-1.2,0.4-1.9-0.4-3.1c-1.1-1.8-3.3-3.6-2.5-6c2-6,7.2-9.5,13.5-10.4
		c0.3,0,2.2,0,2.2-0.5c0.1-1.8-0.8-0.6-1.9-1.3c-3.5-2.4,1.8-3.7-2.5-13.2c-2.8,0.1-4.8,2.5-6.5,4.6c-1.6,1.9-3.7,3.3-6.2,4
		c-2.2,0.7-4.4,0.6-6.3,2c-1.3,0.8-2.6,1.8-3.7,2.9c-0.9,1-1.3,2.5-2.4,3.3c-1.4,1-1.2,0.7-1.7,2.3c-0.3,1.1-0.2,2.3-0.5,3.4
		c-0.7,2.4-2.3,4.4-4.6,5.5c2.3,0.7,4,0.7,5.6-1.5c0.5-0.8,1-1.7,1.4-2.6c0.4-0.7,1.2-0.2,1,0.5c-0.6,2.5,2.2,3.3,3,5.5
		c0.7,2.4-0.4,5-2.6,6.3c-1.6,1-3.6,0.7-4.9,2.3c-1.3,1.5-3.3,4.3-5.3,2.6c-0.4-0.3-1.4-0.8-1.5-1.4c-0.1-0.9,0.3-2.4-0.7-3
		s-4,2.7-4.6,3.3c1.1,0.9,3.1,1.2,3.5,2.8c0.2,0.8-4.1-1.3-5-1.3c-0.6,1.5-1,3.1-1.2,4.8c0,1.6,3.8,0.2,4.8,0.3
		c0,1.5-1.3,1.3-2.4,1.8c-1.6,0.7,0.8,2.7,1.2,3.6c0.4,0.8,0.1,2.8,1.8,2c1.4-0.6,1.2-2.5,2.4-3.4c1.2-1,2.7-1.6,4.2-1.8
		c1.8,0.1,2.5,1.3,1.1,2.6c-1.8,1.5,0.1,1.8,0.6,2.8c1.5-0.4,2.4,1.1,3.1,2.1l0,0C142.9,365,141.2,364.2,142.1,363.3z"/>
	<path class="st1" d="M145,309.8c0.6-0.1,4.1-1.8,4.4-0.6c0.2,0.8-0.3,1.8,1,1.9c0.6,0,2-0.3,2.1-1.1c0.1-0.8,1.4,0.5,1.6,0.6
		c1.3,0.4,2.8,0,3.7-1.1c-1.5-0.1-2.6-1.4-2.5-2.8c0-0.4,0.2-0.8,0.4-1.2c0.8-1.8,1.2-1.2,0.1-3.1c-0.6-1.1-1.1-2.3-1.4-3.6
		c-2.2,4-4.6,6.3-9.4,7.1c-3.2,0.6-10.4-2.2-8.1-6.6c1.2-1.6,2.9-2.8,4.9-3.2l0,0c0.2-0.1,0.3-0.1,0.5-0.1c2.5-0.4-0.4,2.2-0.5,2.6
		c-0.5,2.5,3.6,0.4,4.3-0.2c0.7-0.6,0.5-2,0.3-2.9c-0.2-1.3-0.3-2.7-0.6-4c-0.6,0.1-1.1,0.3-1.5,0.7c-1.5,1-3.2,2-4.7,3
		c-2,1.4-4,3-5.8,4.6c-1.4,1.3-2.8,2.6-4.1,4c-1.6,1.8-5.6,5.8-8.4,4.1c-0.8-0.4-1.9-3.3-2.4-3.3c-2.1,0-1,0.9-1.8,2.3
		c-0.4,0.7-1.3,0.8-2,1.2c0.3,0.8,2.1,1.8,0.9,2.5c-1.3,0.4-2.7,0.7-4.1,0.8c0.4,0.9,1,1.8,0.4,2.9c-0.4,0.7,1.1,1.2,1.4,1.8
		s0.1,1.4,0.8,1.8c1,0.5,1.6,1.6,1.4,2.8c-0.4,2.9,3.8-1.9,3.9-2.1c1.2-1.2,6.4-2.4,5.2,0.8c-0.4,1-1.3,1.8-0.5,3
		c1.1-0.3,2.3-0.1,3.3,0.5c2.8-1.7,1.4-2.5,0.5-5c-0.3-0.9,3.3-0.9,4.2-2c1.9-2.5,2,0.7,2.1,2.4c1.1,0,1.5-1.3,1.8-2.2
		c0.4-1.8,3,1.3,2.8-0.3c-0.1-1,0.2-1.9,0.7-2.7c0.7-1,1.5,0.9,1.4,1.5c-0.2,1.4,3.6,1.2,4.6,1.6h0.1
		C146.4,315.2,143.4,310.2,145,309.8z"/>
	<path class="st1" d="M137.7,284.3c1.4-1.7,3-3.1,4.8-4.2c-2.7-1.8-7.1-4.4-5.5-8.5c0.7-1.8,2.6,0.7,4,0.8c2,0.3,4.1,0.1,6.1-0.5
		c-0.6-0.7-2.4-1.1-3.2-1.8c-1.5-1.4-2-3.4-1.4-5.3c0.3-1-5-4.3-6.1-5.3c-2.5-2.5-6.2-6.1-5.7-10c0-1.2,0.4-2.4,1.1-3.4
		c0.5-1.5,0.7-3.2,0.6-4.8c-1.2,0.6-2.6,1.1-3.7,0c-1-1.1-1,1.4-0.9,1.8c0.7,1.4,1.1,3,1.4,4.5c0,1.5-1.6,3.2-1.6,1.1
		c-1.1-1.2-2-2.6-2.8-4c-0.3-0.6,0.2-4.7-0.9-3.9c-0.7,0.5-1.7,0-2.2,0.5s0,1.6-0.3,2.3c-0.6,1.6-2.8,0.2-3.6-0.2
		c-0.4,2-2.9,2.7-1.2,4.8s4.7,1.4,6.5,3.7s-0.5,5.1-2.9,5.6c-0.6,0.1-1.2,1.2-0.7,1.8c0.8,1.2,0.8,2.8,0,4.1
		c1.2,0.4,2.5,0.2,3.6-0.5c1.3-0.8,0.6-2,2.2-2c0.5,1,1,2.1,1.3,3.2c0.8,1.6,0.7,3.6-0.3,5.1c-1.3,2.2,1.3,5.6,0.9,8
		c-0.6,3.3-2.4,3-4.8,1.3c-0.6,0.5,1.6,1.9,1.9,2c1.7,0.6,3.6-0.3,4.2-2.1c0.1-0.2,0.1-0.4,0.1-0.6c0.5-1.9,0-3.8,0.9-5.7
		c1-2.4,2.9-0.7,2,0.2c-2.2,2.2,3.4,6.1,2.7,8.8C134.2,281.9,136.8,284.2,137.7,284.3z"/>
	<path class="st1" d="M169.8,310.4c0.3,2,1.1,7.1,3.1,7.8C173.9,315.6,172.3,311.3,169.8,310.4z"/>
	<path class="st1" d="M178.4,370.1c0.8-0.7,5-3.3,2.6-4.8c-0.5,0.7-2.1,0.5-2.8,1.4C177.4,367.7,177.5,369.1,178.4,370.1z"/>
	<path class="st1" d="M116.6,305c-1-1.7-5.3,0.3-5.7,1.8C111.4,306.8,118.2,307.7,116.6,305z"/>
	<path class="st1" d="M130.8,240.9c0.7-0.2,1.8-1.1,1.3-2c-0.7-1.1-2-1.2-3.3-1.4C129.5,238.5,128.7,241.3,130.8,240.9z"/>
	<path class="st1" d="M114.9,319.8c-0.3-1.3-4.1,1.3-3,3.6c0,0,0.1,0.1,0.1,0.2C112.9,322.6,115.2,321.4,114.9,319.8z"/>
	<path class="st1" d="M127.8,348.2c4.7-2.4-0.7-3.6-2.3-1.2C126.5,347.1,127.3,347.5,127.8,348.2z"/>
	<path class="st1" d="M126.4,323.7c-0.8,1.8-3.6,1.3-4.2,2.5C123.7,329.2,129,323.7,126.4,323.7z"/>
	<path class="st1" d="M116.4,243.9c0.4-3-3.3-1-4,0.4C113.5,244.2,116.2,245.3,116.4,243.9z"/>
	<path class="st1" d="M190,369.4c-1.8-0.7-1.9,2.8-0.3,3.6C190,371.6,191.7,370,190,369.4z"/>
	<path class="st1" d="M123.9,239.1c1.3-2.5-2.4-2.7-3.6-2C120.8,237.5,123.4,240.1,123.9,239.1z"/>
	<path class="st1" d="M178.8,359.5c-1.5-0.2-2.6,1.9-2.3,3.2c0-0.2,0,0,0,0C178.3,362,179.3,361.7,178.8,359.5z"/>
	<path class="st1" d="M140.9,366.3c0-3.1-2.6,0-3.3,0.6C138.1,367.2,140.8,367.8,140.9,366.3z"/>
	<path class="st1" d="M121.7,355.1c0.7-0.5,4.5-1.5,2.9-2.6C123,351.4,121.8,353.8,121.7,355.1z"/>
	<path class="st1" d="M126.2,364c0.3-0.8,0.9-1.4,1.6-1.7C126.7,358.8,124.2,362.9,126.2,364z"/>
	<path class="st1" d="M116.9,260.2C117.6,264.6,121.2,260.1,116.9,260.2z"/>
	<path class="st1" d="M108.9,314.6c0.6-0.3,4.1,0,2.4-2C110.3,312.9,108.5,313.2,108.9,314.6z"/>
	<path class="st1" d="M197,369.4c-1.8-1.5-2.3,0.3-1.4,1.8L197,369.4z"/>
	<path class="st1" d="M157.3,252.2c-0.7,0.1-0.7,0-1,0.2c0,0,0,0.3,0,0c0,0.5-0.3,1.7,0.7,1.5L157.3,252.2z"/>
	<path class="st1" d="M159.2,258.9c0.1,0.2,0.4,0.2,0.6,0.1c0,0,0.1-0.1,0.1-0.1l-0.5-0.5C159.3,258.6,159.3,258.7,159.2,258.9z"/>
	<path class="st1" d="M166.2,253c-3.6-0.4-6,1.8-9.1,2.8c-1.6,0.9-3.5,1.1-5.3,0.7c-0.9-0.4-3.2-2.1-3.9-2.1
		c0.4,4.8,4.2,5.9,8.1,4.1c1.8-0.8,3.2-2.3,5-3C162.5,254.9,166.1,254.7,166.2,253"/>
	<path class="st1" d="M184,258.1c-0.5-1.8,0.3-4-0.4-5.9c-0.2-0.6-1.3-1.1-1.2-1.8s1.6-1.4,2-1.9c-0.5,0-1.1-0.1-1.6-0.2
		c-0.5-0.1-0.9-0.4-1.1-0.9c-0.3-0.4-0.5-0.8-0.7-1.2c-0.2-0.4-0.4-0.8-0.6-1.2c0-0.1-0.8-2-0.6-2.1c-0.8,0.1-3.6,1.4-3.7-0.2
		c0-0.7,3.3-0.9,4.1-1.4c1.1-0.7,1.3-1.6,0-2.3c-1.3-0.6-2.7-0.7-4.1-0.3c-1.2,0.4-2.2,1.2-3,2.2c-0.1,0.1-0.1,0.1-0.2,0.1
		c-0.5,0.2-0.6-1-0.6-1.3c0.2-0.5,0.5-1,1-1.2c0.5-0.3,1-0.6,1.5-0.7c0.5-0.1,1.1-0.3,1.6-0.5c-1.3-1.5-3.2-2.3-5.1-2.3
		c-2,0-4,0.3-5.9,0.9c-1.7,0.5-3.3,1.1-5,1.7c-0.8,0.3-2.1,1.3-3,1.2c-0.2,0-0.3,0.9-0.4,1.6c0,0.2-0.1,0.4-0.1,0.5
		c0,0.2-0.1,0.4-0.2,0.5c-0.1,0.1-0.2,0.2-0.3,0.3l-0.1,0.1c-1.8,1.3-6.4,2.4-3.9,5.3c0.9,1,0.4,1.8,0.8,2.9c0.6,1.4,3.3,1,4.3,0.6
		c1.5-0.6,7.4-3.3,8.5-1.4c1.7,2.5,1.9,5.8,0.6,8.5c-1.4,2.5-5.3,1.5-7.7,2.4c0.1,1.4,0.1,4.1,1.8,4.6c1.7,0.5,4.5-1.8,5.6-2.9
		c0.3-0.3,2.5-3.6,2.9-2.1s-2.2,4.7-3.2,5.8c-1.4,1.3-3.3,2-5.2,2c-2.2,0-3.8-1.2-5.9-0.9h-0.2c-0.3,0-0.5,0.1-0.7,0.2
		c-3.8,1.4-8.9,1-7.7-4.3c-1.9,0.3-3.2,2.2-2.9,4.1c0.1,0.5,0.3,1,0.6,1.5c0.8,1.1,2,1.9,3.4,2.2h1c0.8,0,1.8,0.2,1.6,0.9
		c-0.2,1.1-3,2-4,2.2c-2.7,0.6-5.4,0.2-7.8-1.1c-0.2,2.9,3,7.4,6.4,6.9c0.9-0.1,1.8-0.4,2.8-0.5c0.6-0.2,1.2-0.1,1.8,0.2
		c0.4,0.3,1,1.5,0.4,1.9c-0.2,0.1-0.4,0.1-0.6,0.1c-1.9-0.2-3.9-0.1-5.8,0.4c-1.9,0.7-3.5,2-4.6,3.7c-0.9,1.4-2.3,2.5-4,3
		c-1,0.3-2.1-0.2-2.5-1.2c-0.5-1-1-2-1.2-3.1c-2.4,2.7-0.1,6.2,2.2,8c1.2,1,2.6,1.6,4.1,1.8c2.2-0.2,4.4-0.9,6.2-2.1
		c1.2-0.7,2.4-1.4,3.6-2.2c0.8-0.5,2.3-1.8,3.3-1.8c0.5,0,0.8,0.3,0.9,0.8c0,0.4-0.2,0.7-0.4,0.9c-0.6,0.5-1.6,0.6-2.2,1.1
		c-2.2,1.8-1.2,4-0.9,6.4c0.6,4.4-6.5,6.5-6.8,1c-4.7,2.6-2.9,5.4,1.5,6.8c3.2,1,8.2-1.6,9.9-4.3c0.6-1.1,1.1-2.3,1.5-3.6
		c0.2-0.4,1.9-4.4,2.7-3.1s-1.2,3.3-0.8,4.8c0.6,2.3,1.9,5.3,4.1,6.5c-0.5-0.2,0.2-3.4,0.4-3.9c0.5-1.4,1.4-2.6,2.5-3.6
		c2.3-2.2,4-4.9,5.1-7.8c0.6-1.6,1.4,0.5,1,1.5c-0.6,1.5-1,3.2-1.1,4.8c-0.2,3.4,2.1,6.9,5.9,6.5c-0.7-1.1-1.5-1.8-1.8-3
		c-0.3-2.3,1.5-3.3,2.7-4.9c1.1-1.3,1.7-3,1.8-4.7c0-0.9-0.4-1.8-0.5-2.7c-0.1-0.9,0-4.8,1.5-4.4l0,0c0.5,0.5-0.4,3.3-0.2,4.2
		c0.3,1.8,1.2,3.5,2.6,4.7c0.9,0.7,3.5,1.4,4,0c-0.5-0.2-1-0.4-1.5-0.5c-2-0.7-2.3-3.1-1.8-4.8c0.3-1.3,1-2.5,1.3-3.8
		s-2-2.7-1.5-3.5s3.3,2.3,4.6,1.8c-0.9-1.8-2-3.7-1.5-5.9s1-4.2,1.4-6.4c0.2-1.3,1.3-4.4-0.6-5.1c-0.6-0.2-2.1-0.5-2.5-1.2
		c-0.2-0.4,0-1.1,0.6-0.9c1.5,0.7,3.5,1.4,4.8,0C187.4,261.1,184.3,259.2,184,258.1z M163.8,243.5c-0.6,0.6-3.3-0.3-3.4-1.7
		C160.3,240.9,164.8,242.6,163.8,243.5z"/>
</g>
<g id="TEXTE">
	<path d="M387.7,224.1h6.8c1.9-0.2,3.7,0.3,5.2,1.5c1.5,1.3,2.2,3.3,1.9,5.3c-0.3,2.1-1.2,3.9-2.8,5.3c-1.1,0.9-2.5,1.5-3.9,1.8
		l5,8.1h-5l-4.8-8.4l0,0l-1,8.4h-4.1L387.7,224.1z M390.5,234.6h2.6c2.1,0.3,4.1-1.2,4.3-3.4c0,0,0,0,0,0c0.1-1.2-0.3-3.3-3.6-3.3
		h-2.6L390.5,234.6z"/>
	<path d="M407.2,224.1H419l-0.5,3.8h-7.8l-0.7,5.3h7.4l-0.5,3.8h-7.4l-0.7,5.3h7.8l-0.5,3.8h-11.8L407.2,224.1z M410.1,219.8l7.1-4
		l1.2,3.1l-7.1,3.6L410.1,219.8z"/>
	<path d="M431.7,234.9H446v0.5c-1.1,6.4-6.6,11.1-13,11.2c-5.5,0.3-10.3-4-10.5-9.5c0-0.6,0-1.3,0.1-1.9c1-6.5,6.6-11.3,13.1-11.5
		c4.5-0.2,8.5,2.7,9.8,6.9h-4.9c-1.1-2-3.2-3.2-5.5-3.1c-4.3,0.1-7.9,3.4-8.5,7.7c-0.6,3.6,1.9,7,5.5,7.6c0.4,0.1,0.9,0.1,1.3,0.1
		c2.9-0.1,5.5-1.6,7-4h-9.2L431.7,234.9z"/>
	<path d="M452.4,224.1h4.1l-2.7,22h-4.1L452.4,224.1z"/>
	<path d="M473.4,223.7c5.5-0.2,10.1,4.2,10.2,9.7c0,0.6,0,1.2-0.1,1.9c-1,6.4-6.4,11.3-12.9,11.4c-5.5,0.2-10.1-4.1-10.2-9.6
		c0-0.6,0-1.2,0.1-1.8C461.4,228.7,466.8,223.8,473.4,223.7z M471,242.8c4.3-0.2,7.8-3.4,8.4-7.6c0.6-3.6-1.8-7-5.3-7.6
		c-0.4-0.1-0.8-0.1-1.2-0.1c-4.3,0.2-7.9,3.4-8.4,7.7c-0.6,3.6,1.8,6.9,5.4,7.5C470.3,242.7,470.7,242.8,471,242.8L471,242.8z"/>
	<path d="M488.9,224h4.6l7,15.8l0,0l1.9-15.8h4l-2.7,21.7h-4.5l-7.1-15.8l0,0l-1.9,15.8h-4L488.9,224z"/>
	<path d="M282.2,248.2h11.5l17.6,39.5h0.1l4.9-39.5h10.1l-6.7,54.4h-11.2l-17.8-39.5h-0.1l-4.8,39.5h-10.1L282.2,248.2z"/>
	<path d="M329.9,281.9c1.8-12.4,12.3-21.8,24.8-22.1c10.5-0.3,19.2,8,19.5,18.4c0,1.2-0.1,2.4-0.3,3.7c-1.5,12.5-12,22-24.7,22.2
		c-10.6,0.2-19.4-8.1-19.6-18.7C329.7,284.2,329.7,283,329.9,281.9z M364,281.9c0.9-7.5-4.2-13.1-10.4-13.1c-7.2,0.4-13,6-13.8,13.1
		c-1,7.8,4.3,12.9,10.6,12.9c7.2,0.1,12.8-6.2,13.6-12.8V281.9z"/>
	<path d="M419.7,261.2l-5.1,41.4h-9.1l0.5-4.2h-0.2c-2.7,3.6-6.9,5.6-11.3,5.5c-7.5,0-11.3-3.7-13.1-6.6c-2.5-4.4-1.7-11.1-1.3-14.6
		l2.7-21.6h9.9l-2.6,21.1c-0.4,3.3-1.5,12.5,7.1,12.5c6.3,0,9.1-5.9,9.9-12.5l2.6-21.2L419.7,261.2z"/>
	<path d="M424.8,261.2h10.7l6.6,27.5h0.2l12.8-27.5H466l-21.8,41.4h-7.7L424.8,261.2z"/>
	<path d="M475.3,286.3c0.8,5,5.3,8.7,10.4,8.5c4.1,0.1,8-1.9,10.2-5.3h10.4c-4,8.5-12.4,14-21.8,14.4c-12.3,0-20.6-9.8-19.2-21.9
		c1.4-11.7,11.8-22.5,24.5-22.5c13.1,0,20,11.3,18.7,21.8c-0.2,1.7-0.6,3.4-1.2,5L475.3,286.3z M498.9,278.3
		c0.1-5.3-4.2-9.6-9.5-9.7c-0.2,0-0.4,0-0.5,0c-5.9,0.2-11.1,4-12.9,9.7H498.9z"/>
	<path d="M519.8,247.4h9.9l-6.8,55.2h-9.9L519.8,247.4z"/>
	<path d="M538.5,247.4h9.9l-6.8,55.2h-9.9L538.5,247.4z"/>
	<path d="M561.1,286.3c0.8,5,5.3,8.7,10.4,8.5c4.1,0.1,8-1.9,10.2-5.3h10.4c-4,8.5-12.4,14-21.7,14.4c-12.3,0-20.7-9.8-19.2-21.9
		c1.4-11.7,11.8-22.5,24.5-22.5c13.1,0,20,11.3,18.7,21.8c-0.2,1.7-0.6,3.4-1.2,5L561.1,286.3z M584.7,278.3
		c0.1-5.3-4.2-9.6-9.5-9.7c-0.2,0-0.4,0-0.6,0c-5.9,0.2-11,4-12.8,9.7H584.7z"/>
	<path d="M529.9,322.2c-0.5,3.4-3.3,5.9-6.7,6c-2.9,0.1-5.2-2.2-5.3-5.1c0-0.3,0-0.6,0.1-0.9c0.5-3.3,3.3-5.9,6.7-5.9
		c2.9-0.1,5.2,2.2,5.3,5.1C529.9,321.6,529.9,321.9,529.9,322.2z"/>
	<path d="M305.1,318.8h7.7l15.2,57.4h-10.8l-3.8-14.8h-19l-7.5,14.8H276L305.1,318.8z M298.8,351.3H311l-3.9-17.6H307L298.8,351.3z"
		/>
	<path d="M378.4,333.1l-7.9,63.5h-9.6L364,372c-3.3,3.5-8,5.5-12.8,5.5c-12,0-18.6-11.5-17.2-23.3c1.5-12.3,12-22.5,22.9-22.5
		c8.1,0,10.7,4.7,11.8,6.9h0.1l0.7-5.3L378.4,333.1z M353.6,368.1c6.7,0,12.3-6.5,13.1-13.4c0.8-6.9-2.8-13.6-9.8-13.6
		c-7,0-12.5,6.3-13.3,13.3C342.5,363.1,347.7,368.1,353.6,368.1z"/>
	<path d="M421.4,333.1l-5.3,43h-8.7l0.5-4.3h-0.1c-2.5,3.6-6.6,5.8-11,5.7c-5.1,0.3-10-2.4-12.5-6.8c-2.4-4.6-1.5-11.5-1.1-15.1
		l2.8-22.5h9.5L393,355c-0.4,3.6-1.6,13,6.7,13c6,0,8.8-6.1,9.6-12.9l2.7-22H421.4z"/>
	<path d="M449.1,342.3h-4.7l1.1-9.1h4.7l1.8-14.4h9.5l-1.8,14.4h5.7l-1.1,9.1h-5.7l-4.1,33.8h-9.5L449.1,342.3z"/>
	<path d="M504.9,376.1h-8.7l0.7-5.3c-3.9,4.1-9.1,6.5-14.7,6.7c-10.2,0-18.3-8.9-16.5-23.2c1.6-13.2,11.7-22.7,22.7-22.7
		c5,0,9.7,2.6,12.3,6.9h0.1l0.7-5.3h8.7L504.9,376.1z M488.5,341.1c-7.8,0-12.7,7.3-13.5,13.7c-0.9,7.3,3.4,13.3,10.2,13.3
		s12.3-5.6,13.3-13.6C499.6,345.6,494.2,341.1,488.5,341.1L488.5,341.1z"/>
	<path d="M536,333.1h8.8l-0.5,3.7c3-3.2,7.2-5,11.5-5.1c4.5,0,8.7,2.3,11.2,6c3.1,4.7,2.2,11.9,1.8,15.3l-2.8,23.3h-9.5l2.6-21.3
		c0.4-3.6,1.7-13.8-6.3-13.8c-2.8,0.1-5.4,1.5-7,3.8c-2,2.6-2.6,7.1-3,10.7l-2.5,20.5h-9.5L536,333.1z"/>
	<path d="M584.8,359.2c0.5,5.1,4.8,8.9,9.9,8.9c4,0.1,7.8-2,9.8-5.5h10c-3.2,7.7-11.7,15-21,15c-11.8,0-19.7-10.2-18.2-22.8
		c1.5-12.2,11.5-23.3,23.8-23.3c12.6,0,19.1,11.8,17.8,22.6c-0.2,1.8-0.6,3.5-1.2,5.2L584.8,359.2z M607.6,350.9
		c-0.2-6.9-4.8-10.1-9.5-10.1c-3.6,0-9.7,2.1-12.5,10.1H607.6z"/>
	<polygon points="424.7,376.1 434.2,376.1 439.5,333.1 429.9,333.1 	"/>
	<path d="M442.6,321.6c-0.5,3.6-3.5,6.2-7.1,6.3c-3,0.1-5.5-2.3-5.6-5.3c0-0.3,0-0.7,0.1-1c0.5-3.6,3.5-6.2,7.1-6.3
		c3-0.1,5.5,2.3,5.6,5.3C442.7,320.9,442.7,321.3,442.6,321.6z"/>
	<polygon points="512.6,376.1 522.1,376.1 527.4,333.1 517.8,333.1 	"/>
	<path d="M600.7,281.9c0.3-2.1,2.1-3.8,4.3-3.8H617c1.8-0.1,3.4,1.4,3.4,3.2c0,0.2,0,0.4,0,0.6l-0.1,0.8c-0.3,2.1-2.1,3.7-4.3,3.8
		H604c-1.8,0.1-3.3-1.4-3.4-3.2c0-0.2,0-0.4,0-0.6L600.7,281.9z"/>
</g>
<path class="st1" d="M172.8,319.5L172.8,319.5c-0.1-0.2-0.2-0.3-0.4-0.4c-0.7-0.5-1.7-0.3-2.2,0.4c-0.1,0.2-0.2,0.4-0.3,0.7
	c-0.1,1.1,0.7,2.1,1.8,2.1c0.1,0,0.1,0,0.2,0c0.6,0,0.8-0.5,0.9-1.1l0,0c0-0.4,0-0.7,0-1.1C172.9,320,172.9,319.7,172.8,319.5z"/>
</svg>
